<mxfile host="app.diagrams.net" agent="Mozilla/5.0 (Windows NT 10.0; Win64; x64) AppleWebKit/537.36 (KHTML, like Gecko) Chrome/130.0.0.0 Safari/537.36" version="24.8.3">
  <diagram id="R2lEEEUBdFMjLlhIrx00" name="Page-1">
    <mxGraphModel dx="1500" dy="813" grid="1" gridSize="10" guides="1" tooltips="1" connect="1" arrows="1" fold="1" page="1" pageScale="1" pageWidth="850" pageHeight="1100" math="0" shadow="0" extFonts="Permanent Marker^https://fonts.googleapis.com/css?family=Permanent+Marker">
      <root>
        <mxCell id="0" />
        <mxCell id="1" parent="0" />
        <mxCell id="-7_u1GHjvPiIO77UrGX1-43" style="edgeStyle=orthogonalEdgeStyle;rounded=0;orthogonalLoop=1;jettySize=auto;html=1;exitX=0.75;exitY=1;exitDx=0;exitDy=0;entryX=0;entryY=0.5;entryDx=0;entryDy=0;" edge="1" parent="1" source="-7_u1GHjvPiIO77UrGX1-1" target="-7_u1GHjvPiIO77UrGX1-24">
          <mxGeometry relative="1" as="geometry">
            <Array as="points">
              <mxPoint x="330" y="159" />
              <mxPoint x="330" y="180" />
              <mxPoint x="40" y="180" />
              <mxPoint x="40" y="390" />
            </Array>
          </mxGeometry>
        </mxCell>
        <mxCell id="-7_u1GHjvPiIO77UrGX1-1" value="" style="rounded=0;whiteSpace=wrap;html=1;fontFamily=Architects Daughter;fontSource=https%3A%2F%2Ffonts.googleapis.com%2Fcss%3Ffamily%3DArchitects%2BDaughter;" vertex="1" parent="1">
          <mxGeometry x="84" y="99" width="296" height="60" as="geometry" />
        </mxCell>
        <mxCell id="-7_u1GHjvPiIO77UrGX1-2" value="" style="endArrow=none;html=1;rounded=0;fontFamily=Architects Daughter;fontSource=https%3A%2F%2Ffonts.googleapis.com%2Fcss%3Ffamily%3DArchitects%2BDaughter;" edge="1" parent="1">
          <mxGeometry width="50" height="50" relative="1" as="geometry">
            <mxPoint x="205" y="159" as="sourcePoint" />
            <mxPoint x="205" y="99" as="targetPoint" />
          </mxGeometry>
        </mxCell>
        <mxCell id="-7_u1GHjvPiIO77UrGX1-3" value="&lt;font style=&quot;font-size: 18px;&quot;&gt;&lt;b style=&quot;font-size: 18px;&quot;&gt;Sales_office&lt;/b&gt;&lt;/font&gt;" style="text;html=1;align=center;verticalAlign=middle;resizable=0;points=[];autosize=1;strokeColor=none;fillColor=none;fontFamily=Architects Daughter;fontSource=https%3A%2F%2Ffonts.googleapis.com%2Fcss%3Ffamily%3DArchitects%2BDaughter;fontSize=18;" vertex="1" parent="1">
          <mxGeometry x="78" y="59" width="130" height="40" as="geometry" />
        </mxCell>
        <mxCell id="-7_u1GHjvPiIO77UrGX1-4" value="&lt;font style=&quot;font-size: 17px;&quot;&gt;&lt;b&gt;Number&lt;/b&gt;&lt;/font&gt;" style="text;html=1;align=center;verticalAlign=middle;resizable=0;points=[];autosize=1;strokeColor=none;fillColor=none;fontStyle=4;fontFamily=Architects Daughter;fontSource=https%3A%2F%2Ffonts.googleapis.com%2Fcss%3Ffamily%3DArchitects%2BDaughter;" vertex="1" parent="1">
          <mxGeometry x="103" y="114" width="80" height="30" as="geometry" />
        </mxCell>
        <mxCell id="-7_u1GHjvPiIO77UrGX1-5" value="&lt;font style=&quot;font-size: 17px;&quot;&gt;&lt;b&gt;Location&lt;/b&gt;&lt;/font&gt;" style="text;html=1;align=center;verticalAlign=middle;resizable=0;points=[];autosize=1;strokeColor=none;fillColor=none;fontFamily=Architects Daughter;fontSource=https%3A%2F%2Ffonts.googleapis.com%2Fcss%3Ffamily%3DArchitects%2BDaughter;" vertex="1" parent="1">
          <mxGeometry x="205" y="114" width="90" height="30" as="geometry" />
        </mxCell>
        <mxCell id="-7_u1GHjvPiIO77UrGX1-51" style="edgeStyle=orthogonalEdgeStyle;rounded=0;orthogonalLoop=1;jettySize=auto;html=1;exitX=0.75;exitY=1;exitDx=0;exitDy=0;entryX=0;entryY=0.75;entryDx=0;entryDy=0;" edge="1" parent="1" source="-7_u1GHjvPiIO77UrGX1-13" target="-7_u1GHjvPiIO77UrGX1-1">
          <mxGeometry relative="1" as="geometry">
            <Array as="points">
              <mxPoint x="440" y="290" />
              <mxPoint x="440" y="310" />
              <mxPoint x="64" y="310" />
              <mxPoint x="64" y="144" />
            </Array>
          </mxGeometry>
        </mxCell>
        <mxCell id="-7_u1GHjvPiIO77UrGX1-13" value="" style="rounded=0;whiteSpace=wrap;html=1;fontFamily=Architects Daughter;fontSource=https%3A%2F%2Ffonts.googleapis.com%2Fcss%3Ffamily%3DArchitects%2BDaughter;" vertex="1" parent="1">
          <mxGeometry x="84" y="230" width="506" height="60" as="geometry" />
        </mxCell>
        <mxCell id="-7_u1GHjvPiIO77UrGX1-14" value="" style="endArrow=none;html=1;rounded=0;fontFamily=Architects Daughter;fontSource=https%3A%2F%2Ffonts.googleapis.com%2Fcss%3Ffamily%3DArchitects%2BDaughter;" edge="1" parent="1">
          <mxGeometry width="50" height="50" relative="1" as="geometry">
            <mxPoint x="140" y="290" as="sourcePoint" />
            <mxPoint x="140" y="230" as="targetPoint" />
          </mxGeometry>
        </mxCell>
        <mxCell id="-7_u1GHjvPiIO77UrGX1-15" value="&lt;font style=&quot;font-size: 18px;&quot;&gt;&lt;b style=&quot;font-size: 18px;&quot;&gt;property&lt;/b&gt;&lt;/font&gt;" style="text;html=1;align=center;verticalAlign=middle;resizable=0;points=[];autosize=1;strokeColor=none;fillColor=none;fontFamily=Architects Daughter;fontSource=https%3A%2F%2Ffonts.googleapis.com%2Fcss%3Ffamily%3DArchitects%2BDaughter;fontSize=18;" vertex="1" parent="1">
          <mxGeometry x="78" y="190" width="100" height="40" as="geometry" />
        </mxCell>
        <mxCell id="-7_u1GHjvPiIO77UrGX1-16" value="&lt;font style=&quot;font-size: 17px;&quot;&gt;&lt;b&gt;Id&lt;/b&gt;&lt;/font&gt;" style="text;html=1;align=center;verticalAlign=middle;resizable=0;points=[];autosize=1;strokeColor=none;fillColor=none;fontStyle=4;fontFamily=Architects Daughter;fontSource=https%3A%2F%2Ffonts.googleapis.com%2Fcss%3Ffamily%3DArchitects%2BDaughter;" vertex="1" parent="1">
          <mxGeometry x="95" y="245" width="30" height="30" as="geometry" />
        </mxCell>
        <mxCell id="-7_u1GHjvPiIO77UrGX1-17" value="&lt;span style=&quot;font-size: 17px;&quot;&gt;&lt;b&gt;Address&lt;/b&gt;&lt;/span&gt;" style="text;html=1;align=center;verticalAlign=middle;resizable=0;points=[];autosize=1;strokeColor=none;fillColor=none;fontFamily=Architects Daughter;fontSource=https%3A%2F%2Ffonts.googleapis.com%2Fcss%3Ffamily%3DArchitects%2BDaughter;" vertex="1" parent="1">
          <mxGeometry x="137" y="245" width="90" height="30" as="geometry" />
        </mxCell>
        <mxCell id="-7_u1GHjvPiIO77UrGX1-18" value="" style="endArrow=none;html=1;rounded=0;fontFamily=Architects Daughter;fontSource=https%3A%2F%2Ffonts.googleapis.com%2Fcss%3Ffamily%3DArchitects%2BDaughter;" edge="1" parent="1">
          <mxGeometry width="50" height="50" relative="1" as="geometry">
            <mxPoint x="225" y="290" as="sourcePoint" />
            <mxPoint x="225" y="230" as="targetPoint" />
          </mxGeometry>
        </mxCell>
        <mxCell id="-7_u1GHjvPiIO77UrGX1-19" value="&lt;span style=&quot;font-size: 17px;&quot;&gt;&lt;b&gt;City&lt;/b&gt;&lt;/span&gt;" style="text;html=1;align=center;verticalAlign=middle;resizable=0;points=[];autosize=1;strokeColor=none;fillColor=none;fontFamily=Architects Daughter;fontSource=https%3A%2F%2Ffonts.googleapis.com%2Fcss%3Ffamily%3DArchitects%2BDaughter;" vertex="1" parent="1">
          <mxGeometry x="227" y="245" width="50" height="30" as="geometry" />
        </mxCell>
        <mxCell id="-7_u1GHjvPiIO77UrGX1-20" value="" style="endArrow=none;html=1;rounded=0;fontFamily=Architects Daughter;fontSource=https%3A%2F%2Ffonts.googleapis.com%2Fcss%3Ffamily%3DArchitects%2BDaughter;" edge="1" parent="1">
          <mxGeometry width="50" height="50" relative="1" as="geometry">
            <mxPoint x="280" y="290" as="sourcePoint" />
            <mxPoint x="280" y="230" as="targetPoint" />
          </mxGeometry>
        </mxCell>
        <mxCell id="-7_u1GHjvPiIO77UrGX1-21" value="&lt;span style=&quot;font-size: 17px;&quot;&gt;&lt;b&gt;State&lt;/b&gt;&lt;/span&gt;" style="text;html=1;align=center;verticalAlign=middle;resizable=0;points=[];autosize=1;strokeColor=none;fillColor=none;fontFamily=Architects Daughter;fontSource=https%3A%2F%2Ffonts.googleapis.com%2Fcss%3Ffamily%3DArchitects%2BDaughter;" vertex="1" parent="1">
          <mxGeometry x="272" y="245" width="70" height="30" as="geometry" />
        </mxCell>
        <mxCell id="-7_u1GHjvPiIO77UrGX1-22" value="" style="endArrow=none;html=1;rounded=0;fontFamily=Architects Daughter;fontSource=https%3A%2F%2Ffonts.googleapis.com%2Fcss%3Ffamily%3DArchitects%2BDaughter;" edge="1" parent="1">
          <mxGeometry width="50" height="50" relative="1" as="geometry">
            <mxPoint x="335" y="290" as="sourcePoint" />
            <mxPoint x="335" y="230" as="targetPoint" />
          </mxGeometry>
        </mxCell>
        <mxCell id="-7_u1GHjvPiIO77UrGX1-23" value="&lt;span style=&quot;font-size: 17px;&quot;&gt;&lt;b&gt;Code&lt;/b&gt;&lt;/span&gt;" style="text;html=1;align=center;verticalAlign=middle;resizable=0;points=[];autosize=1;strokeColor=none;fillColor=none;fontFamily=Architects Daughter;fontSource=https%3A%2F%2Ffonts.googleapis.com%2Fcss%3Ffamily%3DArchitects%2BDaughter;" vertex="1" parent="1">
          <mxGeometry x="332" y="245" width="60" height="30" as="geometry" />
        </mxCell>
        <mxCell id="-7_u1GHjvPiIO77UrGX1-47" style="edgeStyle=orthogonalEdgeStyle;rounded=0;orthogonalLoop=1;jettySize=auto;html=1;exitX=0.75;exitY=1;exitDx=0;exitDy=0;entryX=0;entryY=0.5;entryDx=0;entryDy=0;" edge="1" parent="1" source="-7_u1GHjvPiIO77UrGX1-24" target="-7_u1GHjvPiIO77UrGX1-1">
          <mxGeometry relative="1" as="geometry">
            <Array as="points">
              <mxPoint x="270" y="420" />
              <mxPoint x="270" y="440" />
              <mxPoint x="20" y="440" />
              <mxPoint x="20" y="129" />
            </Array>
          </mxGeometry>
        </mxCell>
        <mxCell id="-7_u1GHjvPiIO77UrGX1-24" value="" style="rounded=0;whiteSpace=wrap;html=1;fontFamily=Architects Daughter;fontSource=https%3A%2F%2Ffonts.googleapis.com%2Fcss%3Ffamily%3DArchitects%2BDaughter;" vertex="1" parent="1">
          <mxGeometry x="84" y="360" width="226" height="60" as="geometry" />
        </mxCell>
        <mxCell id="-7_u1GHjvPiIO77UrGX1-25" value="" style="endArrow=none;html=1;rounded=0;fontFamily=Architects Daughter;fontSource=https%3A%2F%2Ffonts.googleapis.com%2Fcss%3Ffamily%3DArchitects%2BDaughter;" edge="1" parent="1">
          <mxGeometry width="50" height="50" relative="1" as="geometry">
            <mxPoint x="140" y="420" as="sourcePoint" />
            <mxPoint x="140" y="360" as="targetPoint" />
          </mxGeometry>
        </mxCell>
        <mxCell id="-7_u1GHjvPiIO77UrGX1-26" value="&lt;b&gt;Employee&lt;/b&gt;" style="text;html=1;align=center;verticalAlign=middle;resizable=0;points=[];autosize=1;strokeColor=none;fillColor=none;fontFamily=Architects Daughter;fontSource=https%3A%2F%2Ffonts.googleapis.com%2Fcss%3Ffamily%3DArchitects%2BDaughter;fontSize=18;" vertex="1" parent="1">
          <mxGeometry x="78" y="320" width="100" height="40" as="geometry" />
        </mxCell>
        <mxCell id="-7_u1GHjvPiIO77UrGX1-27" value="&lt;font style=&quot;font-size: 17px;&quot;&gt;&lt;b&gt;Id&lt;/b&gt;&lt;/font&gt;" style="text;html=1;align=center;verticalAlign=middle;resizable=0;points=[];autosize=1;strokeColor=none;fillColor=none;fontStyle=4;fontFamily=Architects Daughter;fontSource=https%3A%2F%2Ffonts.googleapis.com%2Fcss%3Ffamily%3DArchitects%2BDaughter;" vertex="1" parent="1">
          <mxGeometry x="95" y="375" width="30" height="30" as="geometry" />
        </mxCell>
        <mxCell id="-7_u1GHjvPiIO77UrGX1-28" value="&lt;span style=&quot;font-size: 17px;&quot;&gt;&lt;b&gt;Name&lt;/b&gt;&lt;/span&gt;" style="text;html=1;align=center;verticalAlign=middle;resizable=0;points=[];autosize=1;strokeColor=none;fillColor=none;fontFamily=Architects Daughter;fontSource=https%3A%2F%2Ffonts.googleapis.com%2Fcss%3Ffamily%3DArchitects%2BDaughter;" vertex="1" parent="1">
          <mxGeometry x="147" y="375" width="70" height="30" as="geometry" />
        </mxCell>
        <mxCell id="-7_u1GHjvPiIO77UrGX1-35" value="" style="rounded=0;whiteSpace=wrap;html=1;fontFamily=Architects Daughter;fontSource=https%3A%2F%2Ffonts.googleapis.com%2Fcss%3Ffamily%3DArchitects%2BDaughter;" vertex="1" parent="1">
          <mxGeometry x="84" y="480" width="136" height="60" as="geometry" />
        </mxCell>
        <mxCell id="-7_u1GHjvPiIO77UrGX1-36" value="" style="endArrow=none;html=1;rounded=0;fontFamily=Architects Daughter;fontSource=https%3A%2F%2Ffonts.googleapis.com%2Fcss%3Ffamily%3DArchitects%2BDaughter;" edge="1" parent="1">
          <mxGeometry width="50" height="50" relative="1" as="geometry">
            <mxPoint x="140" y="540" as="sourcePoint" />
            <mxPoint x="140" y="480" as="targetPoint" />
          </mxGeometry>
        </mxCell>
        <mxCell id="-7_u1GHjvPiIO77UrGX1-37" value="&lt;font style=&quot;font-size: 17px;&quot;&gt;&lt;b&gt;Id&lt;/b&gt;&lt;/font&gt;" style="text;html=1;align=center;verticalAlign=middle;resizable=0;points=[];autosize=1;strokeColor=none;fillColor=none;fontStyle=4;fontFamily=Architects Daughter;fontSource=https%3A%2F%2Ffonts.googleapis.com%2Fcss%3Ffamily%3DArchitects%2BDaughter;" vertex="1" parent="1">
          <mxGeometry x="95" y="495" width="30" height="30" as="geometry" />
        </mxCell>
        <mxCell id="-7_u1GHjvPiIO77UrGX1-38" value="&lt;span style=&quot;font-size: 17px;&quot;&gt;&lt;b&gt;Name&lt;/b&gt;&lt;/span&gt;" style="text;html=1;align=center;verticalAlign=middle;resizable=0;points=[];autosize=1;strokeColor=none;fillColor=none;fontFamily=Architects Daughter;fontSource=https%3A%2F%2Ffonts.googleapis.com%2Fcss%3Ffamily%3DArchitects%2BDaughter;" vertex="1" parent="1">
          <mxGeometry x="147" y="495" width="70" height="30" as="geometry" />
        </mxCell>
        <mxCell id="-7_u1GHjvPiIO77UrGX1-39" value="&lt;b&gt;Owner&lt;/b&gt;" style="text;html=1;align=center;verticalAlign=middle;resizable=0;points=[];autosize=1;strokeColor=none;fillColor=none;fontFamily=Architects Daughter;fontSource=https%3A%2F%2Ffonts.googleapis.com%2Fcss%3Ffamily%3DArchitects%2BDaughter;fontSize=18;" vertex="1" parent="1">
          <mxGeometry x="77" y="440" width="80" height="40" as="geometry" />
        </mxCell>
        <mxCell id="-7_u1GHjvPiIO77UrGX1-40" value="" style="endArrow=none;html=1;rounded=0;fontFamily=Architects Daughter;fontSource=https%3A%2F%2Ffonts.googleapis.com%2Fcss%3Ffamily%3DArchitects%2BDaughter;" edge="1" parent="1">
          <mxGeometry width="50" height="50" relative="1" as="geometry">
            <mxPoint x="290" y="159" as="sourcePoint" />
            <mxPoint x="290" y="99" as="targetPoint" />
          </mxGeometry>
        </mxCell>
        <mxCell id="-7_u1GHjvPiIO77UrGX1-41" value="&lt;font style=&quot;font-size: 17px;&quot;&gt;&lt;b&gt;Emp_id&lt;/b&gt;&lt;/font&gt;" style="text;html=1;align=center;verticalAlign=middle;resizable=0;points=[];autosize=1;strokeColor=none;fillColor=none;fontFamily=Architects Daughter;fontSource=https%3A%2F%2Ffonts.googleapis.com%2Fcss%3Ffamily%3DArchitects%2BDaughter;" vertex="1" parent="1">
          <mxGeometry x="295" y="114" width="80" height="30" as="geometry" />
        </mxCell>
        <mxCell id="-7_u1GHjvPiIO77UrGX1-42" value="" style="endArrow=none;dashed=1;html=1;dashPattern=1 3;strokeWidth=2;rounded=0;" edge="1" parent="1">
          <mxGeometry width="50" height="50" relative="1" as="geometry">
            <mxPoint x="308" y="143" as="sourcePoint" />
            <mxPoint x="368" y="143" as="targetPoint" />
          </mxGeometry>
        </mxCell>
        <mxCell id="-7_u1GHjvPiIO77UrGX1-44" value="" style="endArrow=none;html=1;rounded=0;fontFamily=Architects Daughter;fontSource=https%3A%2F%2Ffonts.googleapis.com%2Fcss%3Ffamily%3DArchitects%2BDaughter;" edge="1" parent="1">
          <mxGeometry width="50" height="50" relative="1" as="geometry">
            <mxPoint x="218" y="420" as="sourcePoint" />
            <mxPoint x="218" y="360" as="targetPoint" />
          </mxGeometry>
        </mxCell>
        <mxCell id="-7_u1GHjvPiIO77UrGX1-45" value="&lt;span style=&quot;font-size: 17px;&quot;&gt;&lt;b&gt;Sales_num&lt;/b&gt;&lt;/span&gt;" style="text;html=1;align=center;verticalAlign=middle;resizable=0;points=[];autosize=1;strokeColor=none;fillColor=none;fontFamily=Architects Daughter;fontSource=https%3A%2F%2Ffonts.googleapis.com%2Fcss%3Ffamily%3DArchitects%2BDaughter;" vertex="1" parent="1">
          <mxGeometry x="209" y="375" width="110" height="30" as="geometry" />
        </mxCell>
        <mxCell id="-7_u1GHjvPiIO77UrGX1-46" value="" style="endArrow=none;dashed=1;html=1;dashPattern=1 3;strokeWidth=2;rounded=0;entryX=0.884;entryY=1.008;entryDx=0;entryDy=0;entryPerimeter=0;" edge="1" parent="1" target="-7_u1GHjvPiIO77UrGX1-45">
          <mxGeometry width="50" height="50" relative="1" as="geometry">
            <mxPoint x="227" y="405" as="sourcePoint" />
            <mxPoint x="287" y="405" as="targetPoint" />
          </mxGeometry>
        </mxCell>
        <mxCell id="-7_u1GHjvPiIO77UrGX1-48" value="" style="endArrow=none;html=1;rounded=0;fontFamily=Architects Daughter;fontSource=https%3A%2F%2Ffonts.googleapis.com%2Fcss%3Ffamily%3DArchitects%2BDaughter;" edge="1" parent="1">
          <mxGeometry width="50" height="50" relative="1" as="geometry">
            <mxPoint x="388" y="290" as="sourcePoint" />
            <mxPoint x="388" y="230" as="targetPoint" />
          </mxGeometry>
        </mxCell>
        <mxCell id="-7_u1GHjvPiIO77UrGX1-49" value="&lt;span style=&quot;font-size: 17px;&quot;&gt;&lt;b&gt;Sales_num&lt;/b&gt;&lt;/span&gt;" style="text;html=1;align=center;verticalAlign=middle;resizable=0;points=[];autosize=1;strokeColor=none;fillColor=none;fontFamily=Architects Daughter;fontSource=https%3A%2F%2Ffonts.googleapis.com%2Fcss%3Ffamily%3DArchitects%2BDaughter;" vertex="1" parent="1">
          <mxGeometry x="379" y="245" width="110" height="30" as="geometry" />
        </mxCell>
        <mxCell id="-7_u1GHjvPiIO77UrGX1-50" value="" style="endArrow=none;dashed=1;html=1;dashPattern=1 3;strokeWidth=2;rounded=0;entryX=0.884;entryY=1.008;entryDx=0;entryDy=0;entryPerimeter=0;" edge="1" target="-7_u1GHjvPiIO77UrGX1-49" parent="1">
          <mxGeometry width="50" height="50" relative="1" as="geometry">
            <mxPoint x="397" y="275" as="sourcePoint" />
            <mxPoint x="457" y="275" as="targetPoint" />
          </mxGeometry>
        </mxCell>
        <mxCell id="-7_u1GHjvPiIO77UrGX1-59" style="edgeStyle=orthogonalEdgeStyle;rounded=0;orthogonalLoop=1;jettySize=auto;html=1;exitX=0.25;exitY=1;exitDx=0;exitDy=0;entryX=0;entryY=0.5;entryDx=0;entryDy=0;" edge="1" parent="1" source="-7_u1GHjvPiIO77UrGX1-52" target="-7_u1GHjvPiIO77UrGX1-35">
          <mxGeometry relative="1" as="geometry" />
        </mxCell>
        <mxCell id="-7_u1GHjvPiIO77UrGX1-60" style="edgeStyle=orthogonalEdgeStyle;rounded=0;orthogonalLoop=1;jettySize=auto;html=1;exitX=0.75;exitY=1;exitDx=0;exitDy=0;entryX=0;entryY=0.5;entryDx=0;entryDy=0;" edge="1" parent="1" source="-7_u1GHjvPiIO77UrGX1-52" target="-7_u1GHjvPiIO77UrGX1-13">
          <mxGeometry relative="1" as="geometry">
            <Array as="points">
              <mxPoint x="238" y="700" />
              <mxPoint x="30" y="700" />
              <mxPoint x="30" y="260" />
            </Array>
          </mxGeometry>
        </mxCell>
        <mxCell id="-7_u1GHjvPiIO77UrGX1-52" value="" style="rounded=0;whiteSpace=wrap;html=1;fontFamily=Architects Daughter;fontSource=https%3A%2F%2Ffonts.googleapis.com%2Fcss%3Ffamily%3DArchitects%2BDaughter;" vertex="1" parent="1">
          <mxGeometry x="84" y="602" width="206" height="60" as="geometry" />
        </mxCell>
        <mxCell id="-7_u1GHjvPiIO77UrGX1-53" value="" style="endArrow=none;html=1;rounded=0;fontFamily=Architects Daughter;fontSource=https%3A%2F%2Ffonts.googleapis.com%2Fcss%3Ffamily%3DArchitects%2BDaughter;" edge="1" parent="1">
          <mxGeometry width="50" height="50" relative="1" as="geometry">
            <mxPoint x="173" y="662" as="sourcePoint" />
            <mxPoint x="173" y="602" as="targetPoint" />
          </mxGeometry>
        </mxCell>
        <mxCell id="-7_u1GHjvPiIO77UrGX1-54" value="&lt;font style=&quot;font-size: 17px;&quot;&gt;&lt;b&gt;Owner_Id&lt;/b&gt;&lt;/font&gt;" style="text;html=1;align=center;verticalAlign=middle;resizable=0;points=[];autosize=1;strokeColor=none;fillColor=none;fontStyle=0;fontFamily=Architects Daughter;fontSource=https%3A%2F%2Ffonts.googleapis.com%2Fcss%3Ffamily%3DArchitects%2BDaughter;" vertex="1" parent="1">
          <mxGeometry x="77" y="617" width="100" height="30" as="geometry" />
        </mxCell>
        <mxCell id="-7_u1GHjvPiIO77UrGX1-55" value="&lt;span style=&quot;font-size: 17px;&quot;&gt;&lt;b&gt;property_id&lt;/b&gt;&lt;/span&gt;" style="text;html=1;align=center;verticalAlign=middle;resizable=0;points=[];autosize=1;strokeColor=none;fillColor=none;fontFamily=Architects Daughter;fontSource=https%3A%2F%2Ffonts.googleapis.com%2Fcss%3Ffamily%3DArchitects%2BDaughter;" vertex="1" parent="1">
          <mxGeometry x="170" y="616" width="120" height="30" as="geometry" />
        </mxCell>
        <mxCell id="-7_u1GHjvPiIO77UrGX1-56" value="&lt;b&gt;Owner_property&lt;/b&gt;" style="text;html=1;align=center;verticalAlign=middle;resizable=0;points=[];autosize=1;strokeColor=none;fillColor=none;fontFamily=Architects Daughter;fontSource=https%3A%2F%2Ffonts.googleapis.com%2Fcss%3Ffamily%3DArchitects%2BDaughter;fontSize=18;" vertex="1" parent="1">
          <mxGeometry x="77" y="562" width="170" height="40" as="geometry" />
        </mxCell>
        <mxCell id="-7_u1GHjvPiIO77UrGX1-57" value="" style="endArrow=none;html=1;rounded=0;" edge="1" parent="1">
          <mxGeometry width="50" height="50" relative="1" as="geometry">
            <mxPoint x="96" y="645" as="sourcePoint" />
            <mxPoint x="271" y="645" as="targetPoint" />
          </mxGeometry>
        </mxCell>
        <mxCell id="-7_u1GHjvPiIO77UrGX1-58" value="" style="endArrow=none;html=1;rounded=0;dashed=1;" edge="1" parent="1">
          <mxGeometry width="50" height="50" relative="1" as="geometry">
            <mxPoint x="95" y="652" as="sourcePoint" />
            <mxPoint x="270" y="652" as="targetPoint" />
          </mxGeometry>
        </mxCell>
        <mxCell id="-7_u1GHjvPiIO77UrGX1-61" value="" style="endArrow=none;html=1;rounded=0;fontFamily=Architects Daughter;fontSource=https%3A%2F%2Ffonts.googleapis.com%2Fcss%3Ffamily%3DArchitects%2BDaughter;" edge="1" parent="1">
          <mxGeometry width="50" height="50" relative="1" as="geometry">
            <mxPoint x="483" y="290" as="sourcePoint" />
            <mxPoint x="483" y="230" as="targetPoint" />
          </mxGeometry>
        </mxCell>
        <mxCell id="-7_u1GHjvPiIO77UrGX1-62" value="&lt;span style=&quot;font-size: 17px;&quot;&gt;&lt;b&gt;Percent&lt;/b&gt;&lt;/span&gt;" style="text;html=1;align=center;verticalAlign=middle;resizable=0;points=[];autosize=1;strokeColor=none;fillColor=none;fontFamily=Architects Daughter;fontSource=https%3A%2F%2Ffonts.googleapis.com%2Fcss%3Ffamily%3DArchitects%2BDaughter;" vertex="1" parent="1">
          <mxGeometry x="489" y="245" width="90" height="30" as="geometry" />
        </mxCell>
      </root>
    </mxGraphModel>
  </diagram>
</mxfile>
